<?xml version="1.0" encoding="utf-8"?><!DOCTYPE svg PUBLIC "-//W3C//DTD SVG 1.1//EN" "http://www.w3.org/Graphics/SVG/1.1/DTD/svg11.dtd"><svg version="1.1" id="Layer_1" xmlns="http://www.w3.org/2000/svg" xmlns:xlink="http://www.w3.org/1999/xlink" x="0px" y="0px" width="1155px" height="1155px" enable-background="new 0 0 1155 1155" xml:space="preserve"><rect x="0" y="0" width="1155" height="1155" fill="rgb(255,255,255)"/><g transform="translate(70,70)"><g><defs><radialGradient id="grad"><stop offset="5%" stop-color="rgb(67,109,102)"/><stop offset="95%" stop-color="rgb(0,0,0)"/></radialGradient><mask id="gmask"><g><g transform="translate(315,0) scale(0.35,0.35)"><g transform="" style="fill:rgb(255, 255, 255)"><polygon points="0,50 50,100 100,50 50,0"/></g></g><g transform="translate(350,0) scale(0.35,0.35)"><g transform="" style="fill:rgb(255, 255, 255)"><polygon points="0,50 50,100 100,50 50,0"/></g></g><g transform="translate(385,0) scale(0.35,0.35)"><g transform="" style="fill:rgb(255, 255, 255)"><polygon points="0,50 50,100 100,50 50,0"/></g></g><g transform="translate(420,0) scale(0.35,0.35)"><g transform="" style="fill:rgb(255, 255, 255)"><polygon points="0,50 50,100 100,50 50,0"/></g></g><g transform="translate(490,0) scale(0.35,0.35)"><g transform="" style="fill:rgb(255, 255, 255)"><polygon points="0,50 50,100 100,50 50,0"/></g></g><g transform="translate(665,0) scale(0.35,0.35)"><g transform="" style="fill:rgb(255, 255, 255)"><polygon points="0,50 50,100 100,50 50,0"/></g></g><g transform="translate(315,35) scale(0.35,0.35)"><g transform="" style="fill:rgb(255, 255, 255)"><polygon points="0,50 50,100 100,50 50,0"/></g></g><g transform="translate(420,35) scale(0.35,0.35)"><g transform="" style="fill:rgb(255, 255, 255)"><polygon points="0,50 50,100 100,50 50,0"/></g></g><g transform="translate(560,35) scale(0.35,0.35)"><g transform="" style="fill:rgb(255, 255, 255)"><polygon points="0,50 50,100 100,50 50,0"/></g></g><g transform="translate(595,35) scale(0.35,0.35)"><g transform="" style="fill:rgb(255, 255, 255)"><polygon points="0,50 50,100 100,50 50,0"/></g></g><g transform="translate(700,35) scale(0.35,0.35)"><g transform="" style="fill:rgb(255, 255, 255)"><polygon points="0,50 50,100 100,50 50,0"/></g></g><g transform="translate(385,70) scale(0.35,0.35)"><g transform="" style="fill:rgb(255, 255, 255)"><polygon points="0,50 50,100 100,50 50,0"/></g></g><g transform="translate(490,70) scale(0.35,0.35)"><g transform="" style="fill:rgb(255, 255, 255)"><polygon points="0,50 50,100 100,50 50,0"/></g></g><g transform="translate(525,70) scale(0.35,0.35)"><g transform="" style="fill:rgb(255, 255, 255)"><polygon points="0,50 50,100 100,50 50,0"/></g></g><g transform="translate(595,70) scale(0.35,0.35)"><g transform="" style="fill:rgb(255, 255, 255)"><polygon points="0,50 50,100 100,50 50,0"/></g></g><g transform="translate(630,70) scale(0.35,0.35)"><g transform="" style="fill:rgb(255, 255, 255)"><polygon points="0,50 50,100 100,50 50,0"/></g></g><g transform="translate(700,70) scale(0.35,0.35)"><g transform="" style="fill:rgb(255, 255, 255)"><polygon points="0,50 50,100 100,50 50,0"/></g></g><g transform="translate(350,105) scale(0.35,0.35)"><g transform="" style="fill:rgb(255, 255, 255)"><polygon points="0,50 50,100 100,50 50,0"/></g></g><g transform="translate(385,105) scale(0.35,0.35)"><g transform="" style="fill:rgb(255, 255, 255)"><polygon points="0,50 50,100 100,50 50,0"/></g></g><g transform="translate(455,105) scale(0.35,0.35)"><g transform="" style="fill:rgb(255, 255, 255)"><polygon points="0,50 50,100 100,50 50,0"/></g></g><g transform="translate(560,105) scale(0.35,0.35)"><g transform="" style="fill:rgb(255, 255, 255)"><polygon points="0,50 50,100 100,50 50,0"/></g></g><g transform="translate(315,140) scale(0.35,0.35)"><g transform="" style="fill:rgb(255, 255, 255)"><polygon points="0,50 50,100 100,50 50,0"/></g></g><g transform="translate(350,140) scale(0.35,0.35)"><g transform="" style="fill:rgb(255, 255, 255)"><polygon points="0,50 50,100 100,50 50,0"/></g></g><g transform="translate(385,140) scale(0.35,0.35)"><g transform="" style="fill:rgb(255, 255, 255)"><polygon points="0,50 50,100 100,50 50,0"/></g></g><g transform="translate(420,140) scale(0.35,0.35)"><g transform="" style="fill:rgb(255, 255, 255)"><polygon points="0,50 50,100 100,50 50,0"/></g></g><g transform="translate(595,140) scale(0.35,0.35)"><g transform="" style="fill:rgb(255, 255, 255)"><polygon points="0,50 50,100 100,50 50,0"/></g></g><g transform="translate(630,140) scale(0.35,0.35)"><g transform="" style="fill:rgb(255, 255, 255)"><polygon points="0,50 50,100 100,50 50,0"/></g></g><g transform="translate(280,175) scale(0.35,0.35)"><g transform="" style="fill:rgb(255, 255, 255)"><polygon points="0,50 50,100 100,50 50,0"/></g></g><g transform="translate(350,175) scale(0.35,0.35)"><g transform="" style="fill:rgb(255, 255, 255)"><polygon points="0,50 50,100 100,50 50,0"/></g></g><g transform="translate(385,175) scale(0.35,0.35)"><g transform="" style="fill:rgb(255, 255, 255)"><polygon points="0,50 50,100 100,50 50,0"/></g></g><g transform="translate(525,175) scale(0.35,0.35)"><g transform="" style="fill:rgb(255, 255, 255)"><polygon points="0,50 50,100 100,50 50,0"/></g></g><g transform="translate(560,175) scale(0.35,0.35)"><g transform="" style="fill:rgb(255, 255, 255)"><polygon points="0,50 50,100 100,50 50,0"/></g></g><g transform="translate(595,175) scale(0.35,0.35)"><g transform="" style="fill:rgb(255, 255, 255)"><polygon points="0,50 50,100 100,50 50,0"/></g></g><g transform="translate(630,175) scale(0.35,0.35)"><g transform="" style="fill:rgb(255, 255, 255)"><polygon points="0,50 50,100 100,50 50,0"/></g></g><g transform="translate(665,175) scale(0.35,0.35)"><g transform="" style="fill:rgb(255, 255, 255)"><polygon points="0,50 50,100 100,50 50,0"/></g></g><g transform="translate(280,210) scale(0.35,0.35)"><g transform="" style="fill:rgb(255, 255, 255)"><polygon points="0,50 50,100 100,50 50,0"/></g></g><g transform="translate(350,210) scale(0.35,0.35)"><g transform="" style="fill:rgb(255, 255, 255)"><polygon points="0,50 50,100 100,50 50,0"/></g></g><g transform="translate(420,210) scale(0.35,0.35)"><g transform="" style="fill:rgb(255, 255, 255)"><polygon points="0,50 50,100 100,50 50,0"/></g></g><g transform="translate(490,210) scale(0.35,0.35)"><g transform="" style="fill:rgb(255, 255, 255)"><polygon points="0,50 50,100 100,50 50,0"/></g></g><g transform="translate(560,210) scale(0.35,0.35)"><g transform="" style="fill:rgb(255, 255, 255)"><polygon points="0,50 50,100 100,50 50,0"/></g></g><g transform="translate(630,210) scale(0.35,0.35)"><g transform="" style="fill:rgb(255, 255, 255)"><polygon points="0,50 50,100 100,50 50,0"/></g></g><g transform="translate(700,210) scale(0.35,0.35)"><g transform="" style="fill:rgb(255, 255, 255)"><polygon points="0,50 50,100 100,50 50,0"/></g></g><g transform="translate(315,245) scale(0.35,0.35)"><g transform="" style="fill:rgb(255, 255, 255)"><polygon points="0,50 50,100 100,50 50,0"/></g></g><g transform="translate(385,245) scale(0.35,0.35)"><g transform="" style="fill:rgb(255, 255, 255)"><polygon points="0,50 50,100 100,50 50,0"/></g></g><g transform="translate(455,245) scale(0.35,0.35)"><g transform="" style="fill:rgb(255, 255, 255)"><polygon points="0,50 50,100 100,50 50,0"/></g></g><g transform="translate(525,245) scale(0.35,0.35)"><g transform="" style="fill:rgb(255, 255, 255)"><polygon points="0,50 50,100 100,50 50,0"/></g></g><g transform="translate(560,245) scale(0.35,0.35)"><g transform="" style="fill:rgb(255, 255, 255)"><polygon points="0,50 50,100 100,50 50,0"/></g></g><g transform="translate(595,245) scale(0.35,0.35)"><g transform="" style="fill:rgb(255, 255, 255)"><polygon points="0,50 50,100 100,50 50,0"/></g></g><g transform="translate(700,245) scale(0.35,0.35)"><g transform="" style="fill:rgb(255, 255, 255)"><polygon points="0,50 50,100 100,50 50,0"/></g></g><g transform="translate(0,280) scale(0.35,0.35)"><g transform="" style="fill:rgb(255, 255, 255)"><polygon points="0,50 50,100 100,50 50,0"/></g></g><g transform="translate(105,280) scale(0.35,0.35)"><g transform="" style="fill:rgb(255, 255, 255)"><polygon points="0,50 50,100 100,50 50,0"/></g></g><g transform="translate(175,280) scale(0.35,0.35)"><g transform="" style="fill:rgb(255, 255, 255)"><polygon points="0,50 50,100 100,50 50,0"/></g></g><g transform="translate(210,280) scale(0.35,0.35)"><g transform="" style="fill:rgb(255, 255, 255)"><polygon points="0,50 50,100 100,50 50,0"/></g></g><g transform="translate(280,280) scale(0.35,0.35)"><g transform="" style="fill:rgb(255, 255, 255)"><polygon points="0,50 50,100 100,50 50,0"/></g></g><g transform="translate(420,280) scale(0.35,0.35)"><g transform="" style="fill:rgb(255, 255, 255)"><polygon points="0,50 50,100 100,50 50,0"/></g></g><g transform="translate(490,280) scale(0.35,0.35)"><g transform="" style="fill:rgb(255, 255, 255)"><polygon points="0,50 50,100 100,50 50,0"/></g></g><g transform="translate(560,280) scale(0.35,0.35)"><g transform="" style="fill:rgb(255, 255, 255)"><polygon points="0,50 50,100 100,50 50,0"/></g></g><g transform="translate(700,280) scale(0.35,0.35)"><g transform="" style="fill:rgb(255, 255, 255)"><polygon points="0,50 50,100 100,50 50,0"/></g></g><g transform="translate(735,280) scale(0.35,0.35)"><g transform="" style="fill:rgb(255, 255, 255)"><polygon points="0,50 50,100 100,50 50,0"/></g></g><g transform="translate(805,280) scale(0.35,0.35)"><g transform="" style="fill:rgb(255, 255, 255)"><polygon points="0,50 50,100 100,50 50,0"/></g></g><g transform="translate(70,315) scale(0.35,0.35)"><g transform="" style="fill:rgb(255, 255, 255)"><polygon points="0,50 50,100 100,50 50,0"/></g></g><g transform="translate(105,315) scale(0.35,0.35)"><g transform="" style="fill:rgb(255, 255, 255)"><polygon points="0,50 50,100 100,50 50,0"/></g></g><g transform="translate(140,315) scale(0.35,0.35)"><g transform="" style="fill:rgb(255, 255, 255)"><polygon points="0,50 50,100 100,50 50,0"/></g></g><g transform="translate(350,315) scale(0.35,0.35)"><g transform="" style="fill:rgb(255, 255, 255)"><polygon points="0,50 50,100 100,50 50,0"/></g></g><g transform="translate(455,315) scale(0.35,0.35)"><g transform="" style="fill:rgb(255, 255, 255)"><polygon points="0,50 50,100 100,50 50,0"/></g></g><g transform="translate(525,315) scale(0.35,0.35)"><g transform="" style="fill:rgb(255, 255, 255)"><polygon points="0,50 50,100 100,50 50,0"/></g></g><g transform="translate(560,315) scale(0.35,0.35)"><g transform="" style="fill:rgb(255, 255, 255)"><polygon points="0,50 50,100 100,50 50,0"/></g></g><g transform="translate(595,315) scale(0.35,0.35)"><g transform="" style="fill:rgb(255, 255, 255)"><polygon points="0,50 50,100 100,50 50,0"/></g></g><g transform="translate(630,315) scale(0.35,0.35)"><g transform="" style="fill:rgb(255, 255, 255)"><polygon points="0,50 50,100 100,50 50,0"/></g></g><g transform="translate(700,315) scale(0.35,0.35)"><g transform="" style="fill:rgb(255, 255, 255)"><polygon points="0,50 50,100 100,50 50,0"/></g></g><g transform="translate(735,315) scale(0.35,0.35)"><g transform="" style="fill:rgb(255, 255, 255)"><polygon points="0,50 50,100 100,50 50,0"/></g></g><g transform="translate(770,315) scale(0.35,0.35)"><g transform="" style="fill:rgb(255, 255, 255)"><polygon points="0,50 50,100 100,50 50,0"/></g></g><g transform="translate(875,315) scale(0.35,0.35)"><g transform="" style="fill:rgb(255, 255, 255)"><polygon points="0,50 50,100 100,50 50,0"/></g></g><g transform="translate(980,315) scale(0.35,0.35)"><g transform="" style="fill:rgb(255, 255, 255)"><polygon points="0,50 50,100 100,50 50,0"/></g></g><g transform="translate(35,350) scale(0.35,0.35)"><g transform="" style="fill:rgb(255, 255, 255)"><polygon points="0,50 50,100 100,50 50,0"/></g></g><g transform="translate(70,350) scale(0.35,0.35)"><g transform="" style="fill:rgb(255, 255, 255)"><polygon points="0,50 50,100 100,50 50,0"/></g></g><g transform="translate(105,350) scale(0.35,0.35)"><g transform="" style="fill:rgb(255, 255, 255)"><polygon points="0,50 50,100 100,50 50,0"/></g></g><g transform="translate(175,350) scale(0.35,0.35)"><g transform="" style="fill:rgb(255, 255, 255)"><polygon points="0,50 50,100 100,50 50,0"/></g></g><g transform="translate(210,350) scale(0.35,0.35)"><g transform="" style="fill:rgb(255, 255, 255)"><polygon points="0,50 50,100 100,50 50,0"/></g></g><g transform="translate(245,350) scale(0.35,0.35)"><g transform="" style="fill:rgb(255, 255, 255)"><polygon points="0,50 50,100 100,50 50,0"/></g></g><g transform="translate(315,350) scale(0.35,0.35)"><g transform="" style="fill:rgb(255, 255, 255)"><polygon points="0,50 50,100 100,50 50,0"/></g></g><g transform="translate(350,350) scale(0.35,0.35)"><g transform="" style="fill:rgb(255, 255, 255)"><polygon points="0,50 50,100 100,50 50,0"/></g></g><g transform="translate(455,350) scale(0.35,0.35)"><g transform="" style="fill:rgb(255, 255, 255)"><polygon points="0,50 50,100 100,50 50,0"/></g></g><g transform="translate(490,350) scale(0.35,0.35)"><g transform="" style="fill:rgb(255, 255, 255)"><polygon points="0,50 50,100 100,50 50,0"/></g></g><g transform="translate(525,350) scale(0.35,0.35)"><g transform="" style="fill:rgb(255, 255, 255)"><polygon points="0,50 50,100 100,50 50,0"/></g></g><g transform="translate(595,350) scale(0.35,0.35)"><g transform="" style="fill:rgb(255, 255, 255)"><polygon points="0,50 50,100 100,50 50,0"/></g></g><g transform="translate(630,350) scale(0.35,0.35)"><g transform="" style="fill:rgb(255, 255, 255)"><polygon points="0,50 50,100 100,50 50,0"/></g></g><g transform="translate(665,350) scale(0.35,0.35)"><g transform="" style="fill:rgb(255, 255, 255)"><polygon points="0,50 50,100 100,50 50,0"/></g></g><g transform="translate(700,350) scale(0.35,0.35)"><g transform="" style="fill:rgb(255, 255, 255)"><polygon points="0,50 50,100 100,50 50,0"/></g></g><g transform="translate(735,350) scale(0.35,0.35)"><g transform="" style="fill:rgb(255, 255, 255)"><polygon points="0,50 50,100 100,50 50,0"/></g></g><g transform="translate(770,350) scale(0.35,0.35)"><g transform="" style="fill:rgb(255, 255, 255)"><polygon points="0,50 50,100 100,50 50,0"/></g></g><g transform="translate(875,350) scale(0.35,0.35)"><g transform="" style="fill:rgb(255, 255, 255)"><polygon points="0,50 50,100 100,50 50,0"/></g></g><g transform="translate(910,350) scale(0.35,0.35)"><g transform="" style="fill:rgb(255, 255, 255)"><polygon points="0,50 50,100 100,50 50,0"/></g></g><g transform="translate(945,350) scale(0.35,0.35)"><g transform="" style="fill:rgb(255, 255, 255)"><polygon points="0,50 50,100 100,50 50,0"/></g></g><g transform="translate(0,385) scale(0.35,0.35)"><g transform="" style="fill:rgb(255, 255, 255)"><polygon points="0,50 50,100 100,50 50,0"/></g></g><g transform="translate(35,385) scale(0.35,0.35)"><g transform="" style="fill:rgb(255, 255, 255)"><polygon points="0,50 50,100 100,50 50,0"/></g></g><g transform="translate(105,385) scale(0.35,0.35)"><g transform="" style="fill:rgb(255, 255, 255)"><polygon points="0,50 50,100 100,50 50,0"/></g></g><g transform="translate(175,385) scale(0.35,0.35)"><g transform="" style="fill:rgb(255, 255, 255)"><polygon points="0,50 50,100 100,50 50,0"/></g></g><g transform="translate(245,385) scale(0.35,0.35)"><g transform="" style="fill:rgb(255, 255, 255)"><polygon points="0,50 50,100 100,50 50,0"/></g></g><g transform="translate(280,385) scale(0.35,0.35)"><g transform="" style="fill:rgb(255, 255, 255)"><polygon points="0,50 50,100 100,50 50,0"/></g></g><g transform="translate(420,385) scale(0.35,0.35)"><g transform="" style="fill:rgb(255, 255, 255)"><polygon points="0,50 50,100 100,50 50,0"/></g></g><g transform="translate(455,385) scale(0.35,0.35)"><g transform="" style="fill:rgb(255, 255, 255)"><polygon points="0,50 50,100 100,50 50,0"/></g></g><g transform="translate(560,385) scale(0.35,0.35)"><g transform="" style="fill:rgb(255, 255, 255)"><polygon points="0,50 50,100 100,50 50,0"/></g></g><g transform="translate(630,385) scale(0.35,0.35)"><g transform="" style="fill:rgb(255, 255, 255)"><polygon points="0,50 50,100 100,50 50,0"/></g></g><g transform="translate(665,385) scale(0.35,0.35)"><g transform="" style="fill:rgb(255, 255, 255)"><polygon points="0,50 50,100 100,50 50,0"/></g></g><g transform="translate(770,385) scale(0.35,0.35)"><g transform="" style="fill:rgb(255, 255, 255)"><polygon points="0,50 50,100 100,50 50,0"/></g></g><g transform="translate(805,385) scale(0.35,0.35)"><g transform="" style="fill:rgb(255, 255, 255)"><polygon points="0,50 50,100 100,50 50,0"/></g></g><g transform="translate(840,385) scale(0.35,0.35)"><g transform="" style="fill:rgb(255, 255, 255)"><polygon points="0,50 50,100 100,50 50,0"/></g></g><g transform="translate(910,385) scale(0.35,0.35)"><g transform="" style="fill:rgb(255, 255, 255)"><polygon points="0,50 50,100 100,50 50,0"/></g></g><g transform="translate(945,385) scale(0.35,0.35)"><g transform="" style="fill:rgb(255, 255, 255)"><polygon points="0,50 50,100 100,50 50,0"/></g></g><g transform="translate(0,420) scale(0.35,0.35)"><g transform="" style="fill:rgb(255, 255, 255)"><polygon points="0,50 50,100 100,50 50,0"/></g></g><g transform="translate(35,420) scale(0.35,0.35)"><g transform="" style="fill:rgb(255, 255, 255)"><polygon points="0,50 50,100 100,50 50,0"/></g></g><g transform="translate(105,420) scale(0.35,0.35)"><g transform="" style="fill:rgb(255, 255, 255)"><polygon points="0,50 50,100 100,50 50,0"/></g></g><g transform="translate(140,420) scale(0.35,0.35)"><g transform="" style="fill:rgb(255, 255, 255)"><polygon points="0,50 50,100 100,50 50,0"/></g></g><g transform="translate(175,420) scale(0.35,0.35)"><g transform="" style="fill:rgb(255, 255, 255)"><polygon points="0,50 50,100 100,50 50,0"/></g></g><g transform="translate(210,420) scale(0.35,0.35)"><g transform="" style="fill:rgb(255, 255, 255)"><polygon points="0,50 50,100 100,50 50,0"/></g></g><g transform="translate(315,420) scale(0.35,0.35)"><g transform="" style="fill:rgb(255, 255, 255)"><polygon points="0,50 50,100 100,50 50,0"/></g></g><g transform="translate(385,420) scale(0.35,0.35)"><g transform="" style="fill:rgb(255, 255, 255)"><polygon points="0,50 50,100 100,50 50,0"/></g></g><g transform="translate(490,420) scale(0.35,0.35)"><g transform="" style="fill:rgb(255, 255, 255)"><polygon points="0,50 50,100 100,50 50,0"/></g></g><g transform="translate(525,420) scale(0.35,0.35)"><g transform="" style="fill:rgb(255, 255, 255)"><polygon points="0,50 50,100 100,50 50,0"/></g></g><g transform="translate(595,420) scale(0.35,0.35)"><g transform="" style="fill:rgb(255, 255, 255)"><polygon points="0,50 50,100 100,50 50,0"/></g></g><g transform="translate(700,420) scale(0.35,0.35)"><g transform="" style="fill:rgb(255, 255, 255)"><polygon points="0,50 50,100 100,50 50,0"/></g></g><g transform="translate(735,420) scale(0.35,0.35)"><g transform="" style="fill:rgb(255, 255, 255)"><polygon points="0,50 50,100 100,50 50,0"/></g></g><g transform="translate(770,420) scale(0.35,0.35)"><g transform="" style="fill:rgb(255, 255, 255)"><polygon points="0,50 50,100 100,50 50,0"/></g></g><g transform="translate(875,420) scale(0.35,0.35)"><g transform="" style="fill:rgb(255, 255, 255)"><polygon points="0,50 50,100 100,50 50,0"/></g></g><g transform="translate(945,420) scale(0.35,0.35)"><g transform="" style="fill:rgb(255, 255, 255)"><polygon points="0,50 50,100 100,50 50,0"/></g></g><g transform="translate(980,420) scale(0.35,0.35)"><g transform="" style="fill:rgb(255, 255, 255)"><polygon points="0,50 50,100 100,50 50,0"/></g></g><g transform="translate(35,455) scale(0.35,0.35)"><g transform="" style="fill:rgb(255, 255, 255)"><polygon points="0,50 50,100 100,50 50,0"/></g></g><g transform="translate(70,455) scale(0.35,0.35)"><g transform="" style="fill:rgb(255, 255, 255)"><polygon points="0,50 50,100 100,50 50,0"/></g></g><g transform="translate(175,455) scale(0.35,0.35)"><g transform="" style="fill:rgb(255, 255, 255)"><polygon points="0,50 50,100 100,50 50,0"/></g></g><g transform="translate(385,455) scale(0.35,0.35)"><g transform="" style="fill:rgb(255, 255, 255)"><polygon points="0,50 50,100 100,50 50,0"/></g></g><g transform="translate(420,455) scale(0.35,0.35)"><g transform="" style="fill:rgb(255, 255, 255)"><polygon points="0,50 50,100 100,50 50,0"/></g></g><g transform="translate(455,455) scale(0.35,0.35)"><g transform="" style="fill:rgb(255, 255, 255)"><polygon points="0,50 50,100 100,50 50,0"/></g></g><g transform="translate(490,455) scale(0.35,0.35)"><g transform="" style="fill:rgb(255, 255, 255)"><polygon points="0,50 50,100 100,50 50,0"/></g></g><g transform="translate(525,455) scale(0.35,0.35)"><g transform="" style="fill:rgb(255, 255, 255)"><polygon points="0,50 50,100 100,50 50,0"/></g></g><g transform="translate(560,455) scale(0.35,0.35)"><g transform="" style="fill:rgb(255, 255, 255)"><polygon points="0,50 50,100 100,50 50,0"/></g></g><g transform="translate(595,455) scale(0.35,0.35)"><g transform="" style="fill:rgb(255, 255, 255)"><polygon points="0,50 50,100 100,50 50,0"/></g></g><g transform="translate(630,455) scale(0.35,0.35)"><g transform="" style="fill:rgb(255, 255, 255)"><polygon points="0,50 50,100 100,50 50,0"/></g></g><g transform="translate(665,455) scale(0.35,0.35)"><g transform="" style="fill:rgb(255, 255, 255)"><polygon points="0,50 50,100 100,50 50,0"/></g></g><g transform="translate(700,455) scale(0.35,0.35)"><g transform="" style="fill:rgb(255, 255, 255)"><polygon points="0,50 50,100 100,50 50,0"/></g></g><g transform="translate(140,490) scale(0.35,0.35)"><g transform="" style="fill:rgb(255, 255, 255)"><polygon points="0,50 50,100 100,50 50,0"/></g></g><g transform="translate(210,490) scale(0.35,0.35)"><g transform="" style="fill:rgb(255, 255, 255)"><polygon points="0,50 50,100 100,50 50,0"/></g></g><g transform="translate(280,490) scale(0.35,0.35)"><g transform="" style="fill:rgb(255, 255, 255)"><polygon points="0,50 50,100 100,50 50,0"/></g></g><g transform="translate(350,490) scale(0.35,0.35)"><g transform="" style="fill:rgb(255, 255, 255)"><polygon points="0,50 50,100 100,50 50,0"/></g></g><g transform="translate(385,490) scale(0.35,0.35)"><g transform="" style="fill:rgb(255, 255, 255)"><polygon points="0,50 50,100 100,50 50,0"/></g></g><g transform="translate(455,490) scale(0.35,0.35)"><g transform="" style="fill:rgb(255, 255, 255)"><polygon points="0,50 50,100 100,50 50,0"/></g></g><g transform="translate(490,490) scale(0.35,0.35)"><g transform="" style="fill:rgb(255, 255, 255)"><polygon points="0,50 50,100 100,50 50,0"/></g></g><g transform="translate(595,490) scale(0.35,0.35)"><g transform="" style="fill:rgb(255, 255, 255)"><polygon points="0,50 50,100 100,50 50,0"/></g></g><g transform="translate(630,490) scale(0.35,0.35)"><g transform="" style="fill:rgb(255, 255, 255)"><polygon points="0,50 50,100 100,50 50,0"/></g></g><g transform="translate(700,490) scale(0.35,0.35)"><g transform="" style="fill:rgb(255, 255, 255)"><polygon points="0,50 50,100 100,50 50,0"/></g></g><g transform="translate(735,490) scale(0.35,0.35)"><g transform="" style="fill:rgb(255, 255, 255)"><polygon points="0,50 50,100 100,50 50,0"/></g></g><g transform="translate(770,490) scale(0.35,0.35)"><g transform="" style="fill:rgb(255, 255, 255)"><polygon points="0,50 50,100 100,50 50,0"/></g></g><g transform="translate(875,490) scale(0.35,0.35)"><g transform="" style="fill:rgb(255, 255, 255)"><polygon points="0,50 50,100 100,50 50,0"/></g></g><g transform="translate(910,490) scale(0.35,0.35)"><g transform="" style="fill:rgb(255, 255, 255)"><polygon points="0,50 50,100 100,50 50,0"/></g></g><g transform="translate(945,490) scale(0.35,0.35)"><g transform="" style="fill:rgb(255, 255, 255)"><polygon points="0,50 50,100 100,50 50,0"/></g></g><g transform="translate(980,490) scale(0.35,0.35)"><g transform="" style="fill:rgb(255, 255, 255)"><polygon points="0,50 50,100 100,50 50,0"/></g></g><g transform="translate(105,525) scale(0.35,0.35)"><g transform="" style="fill:rgb(255, 255, 255)"><polygon points="0,50 50,100 100,50 50,0"/></g></g><g transform="translate(175,525) scale(0.35,0.35)"><g transform="" style="fill:rgb(255, 255, 255)"><polygon points="0,50 50,100 100,50 50,0"/></g></g><g transform="translate(280,525) scale(0.35,0.35)"><g transform="" style="fill:rgb(255, 255, 255)"><polygon points="0,50 50,100 100,50 50,0"/></g></g><g transform="translate(385,525) scale(0.35,0.35)"><g transform="" style="fill:rgb(255, 255, 255)"><polygon points="0,50 50,100 100,50 50,0"/></g></g><g transform="translate(525,525) scale(0.35,0.35)"><g transform="" style="fill:rgb(255, 255, 255)"><polygon points="0,50 50,100 100,50 50,0"/></g></g><g transform="translate(595,525) scale(0.35,0.35)"><g transform="" style="fill:rgb(255, 255, 255)"><polygon points="0,50 50,100 100,50 50,0"/></g></g><g transform="translate(665,525) scale(0.35,0.35)"><g transform="" style="fill:rgb(255, 255, 255)"><polygon points="0,50 50,100 100,50 50,0"/></g></g><g transform="translate(700,525) scale(0.35,0.35)"><g transform="" style="fill:rgb(255, 255, 255)"><polygon points="0,50 50,100 100,50 50,0"/></g></g><g transform="translate(770,525) scale(0.35,0.35)"><g transform="" style="fill:rgb(255, 255, 255)"><polygon points="0,50 50,100 100,50 50,0"/></g></g><g transform="translate(805,525) scale(0.35,0.35)"><g transform="" style="fill:rgb(255, 255, 255)"><polygon points="0,50 50,100 100,50 50,0"/></g></g><g transform="translate(840,525) scale(0.35,0.35)"><g transform="" style="fill:rgb(255, 255, 255)"><polygon points="0,50 50,100 100,50 50,0"/></g></g><g transform="translate(875,525) scale(0.35,0.35)"><g transform="" style="fill:rgb(255, 255, 255)"><polygon points="0,50 50,100 100,50 50,0"/></g></g><g transform="translate(945,525) scale(0.35,0.35)"><g transform="" style="fill:rgb(255, 255, 255)"><polygon points="0,50 50,100 100,50 50,0"/></g></g><g transform="translate(0,560) scale(0.35,0.35)"><g transform="" style="fill:rgb(255, 255, 255)"><polygon points="0,50 50,100 100,50 50,0"/></g></g><g transform="translate(35,560) scale(0.35,0.35)"><g transform="" style="fill:rgb(255, 255, 255)"><polygon points="0,50 50,100 100,50 50,0"/></g></g><g transform="translate(70,560) scale(0.35,0.35)"><g transform="" style="fill:rgb(255, 255, 255)"><polygon points="0,50 50,100 100,50 50,0"/></g></g><g transform="translate(105,560) scale(0.35,0.35)"><g transform="" style="fill:rgb(255, 255, 255)"><polygon points="0,50 50,100 100,50 50,0"/></g></g><g transform="translate(175,560) scale(0.35,0.35)"><g transform="" style="fill:rgb(255, 255, 255)"><polygon points="0,50 50,100 100,50 50,0"/></g></g><g transform="translate(210,560) scale(0.35,0.35)"><g transform="" style="fill:rgb(255, 255, 255)"><polygon points="0,50 50,100 100,50 50,0"/></g></g><g transform="translate(280,560) scale(0.35,0.35)"><g transform="" style="fill:rgb(255, 255, 255)"><polygon points="0,50 50,100 100,50 50,0"/></g></g><g transform="translate(315,560) scale(0.35,0.35)"><g transform="" style="fill:rgb(255, 255, 255)"><polygon points="0,50 50,100 100,50 50,0"/></g></g><g transform="translate(350,560) scale(0.35,0.35)"><g transform="" style="fill:rgb(255, 255, 255)"><polygon points="0,50 50,100 100,50 50,0"/></g></g><g transform="translate(455,560) scale(0.35,0.35)"><g transform="" style="fill:rgb(255, 255, 255)"><polygon points="0,50 50,100 100,50 50,0"/></g></g><g transform="translate(595,560) scale(0.35,0.35)"><g transform="" style="fill:rgb(255, 255, 255)"><polygon points="0,50 50,100 100,50 50,0"/></g></g><g transform="translate(665,560) scale(0.35,0.35)"><g transform="" style="fill:rgb(255, 255, 255)"><polygon points="0,50 50,100 100,50 50,0"/></g></g><g transform="translate(700,560) scale(0.35,0.35)"><g transform="" style="fill:rgb(255, 255, 255)"><polygon points="0,50 50,100 100,50 50,0"/></g></g><g transform="translate(735,560) scale(0.35,0.35)"><g transform="" style="fill:rgb(255, 255, 255)"><polygon points="0,50 50,100 100,50 50,0"/></g></g><g transform="translate(945,560) scale(0.35,0.35)"><g transform="" style="fill:rgb(255, 255, 255)"><polygon points="0,50 50,100 100,50 50,0"/></g></g><g transform="translate(35,595) scale(0.35,0.35)"><g transform="" style="fill:rgb(255, 255, 255)"><polygon points="0,50 50,100 100,50 50,0"/></g></g><g transform="translate(105,595) scale(0.35,0.35)"><g transform="" style="fill:rgb(255, 255, 255)"><polygon points="0,50 50,100 100,50 50,0"/></g></g><g transform="translate(140,595) scale(0.35,0.35)"><g transform="" style="fill:rgb(255, 255, 255)"><polygon points="0,50 50,100 100,50 50,0"/></g></g><g transform="translate(175,595) scale(0.35,0.35)"><g transform="" style="fill:rgb(255, 255, 255)"><polygon points="0,50 50,100 100,50 50,0"/></g></g><g transform="translate(280,595) scale(0.35,0.35)"><g transform="" style="fill:rgb(255, 255, 255)"><polygon points="0,50 50,100 100,50 50,0"/></g></g><g transform="translate(315,595) scale(0.35,0.35)"><g transform="" style="fill:rgb(255, 255, 255)"><polygon points="0,50 50,100 100,50 50,0"/></g></g><g transform="translate(385,595) scale(0.35,0.35)"><g transform="" style="fill:rgb(255, 255, 255)"><polygon points="0,50 50,100 100,50 50,0"/></g></g><g transform="translate(455,595) scale(0.35,0.35)"><g transform="" style="fill:rgb(255, 255, 255)"><polygon points="0,50 50,100 100,50 50,0"/></g></g><g transform="translate(490,595) scale(0.35,0.35)"><g transform="" style="fill:rgb(255, 255, 255)"><polygon points="0,50 50,100 100,50 50,0"/></g></g><g transform="translate(525,595) scale(0.35,0.35)"><g transform="" style="fill:rgb(255, 255, 255)"><polygon points="0,50 50,100 100,50 50,0"/></g></g><g transform="translate(560,595) scale(0.35,0.35)"><g transform="" style="fill:rgb(255, 255, 255)"><polygon points="0,50 50,100 100,50 50,0"/></g></g><g transform="translate(735,595) scale(0.35,0.35)"><g transform="" style="fill:rgb(255, 255, 255)"><polygon points="0,50 50,100 100,50 50,0"/></g></g><g transform="translate(770,595) scale(0.35,0.35)"><g transform="" style="fill:rgb(255, 255, 255)"><polygon points="0,50 50,100 100,50 50,0"/></g></g><g transform="translate(805,595) scale(0.35,0.35)"><g transform="" style="fill:rgb(255, 255, 255)"><polygon points="0,50 50,100 100,50 50,0"/></g></g><g transform="translate(875,595) scale(0.35,0.35)"><g transform="" style="fill:rgb(255, 255, 255)"><polygon points="0,50 50,100 100,50 50,0"/></g></g><g transform="translate(980,595) scale(0.35,0.35)"><g transform="" style="fill:rgb(255, 255, 255)"><polygon points="0,50 50,100 100,50 50,0"/></g></g><g transform="translate(0,630) scale(0.35,0.35)"><g transform="" style="fill:rgb(255, 255, 255)"><polygon points="0,50 50,100 100,50 50,0"/></g></g><g transform="translate(70,630) scale(0.35,0.35)"><g transform="" style="fill:rgb(255, 255, 255)"><polygon points="0,50 50,100 100,50 50,0"/></g></g><g transform="translate(105,630) scale(0.35,0.35)"><g transform="" style="fill:rgb(255, 255, 255)"><polygon points="0,50 50,100 100,50 50,0"/></g></g><g transform="translate(175,630) scale(0.35,0.35)"><g transform="" style="fill:rgb(255, 255, 255)"><polygon points="0,50 50,100 100,50 50,0"/></g></g><g transform="translate(210,630) scale(0.35,0.35)"><g transform="" style="fill:rgb(255, 255, 255)"><polygon points="0,50 50,100 100,50 50,0"/></g></g><g transform="translate(245,630) scale(0.35,0.35)"><g transform="" style="fill:rgb(255, 255, 255)"><polygon points="0,50 50,100 100,50 50,0"/></g></g><g transform="translate(350,630) scale(0.35,0.35)"><g transform="" style="fill:rgb(255, 255, 255)"><polygon points="0,50 50,100 100,50 50,0"/></g></g><g transform="translate(420,630) scale(0.35,0.35)"><g transform="" style="fill:rgb(255, 255, 255)"><polygon points="0,50 50,100 100,50 50,0"/></g></g><g transform="translate(490,630) scale(0.35,0.35)"><g transform="" style="fill:rgb(255, 255, 255)"><polygon points="0,50 50,100 100,50 50,0"/></g></g><g transform="translate(525,630) scale(0.35,0.35)"><g transform="" style="fill:rgb(255, 255, 255)"><polygon points="0,50 50,100 100,50 50,0"/></g></g><g transform="translate(560,630) scale(0.35,0.35)"><g transform="" style="fill:rgb(255, 255, 255)"><polygon points="0,50 50,100 100,50 50,0"/></g></g><g transform="translate(630,630) scale(0.35,0.35)"><g transform="" style="fill:rgb(255, 255, 255)"><polygon points="0,50 50,100 100,50 50,0"/></g></g><g transform="translate(735,630) scale(0.35,0.35)"><g transform="" style="fill:rgb(255, 255, 255)"><polygon points="0,50 50,100 100,50 50,0"/></g></g><g transform="translate(945,630) scale(0.35,0.35)"><g transform="" style="fill:rgb(255, 255, 255)"><polygon points="0,50 50,100 100,50 50,0"/></g></g><g transform="translate(980,630) scale(0.35,0.35)"><g transform="" style="fill:rgb(255, 255, 255)"><polygon points="0,50 50,100 100,50 50,0"/></g></g><g transform="translate(105,665) scale(0.35,0.35)"><g transform="" style="fill:rgb(255, 255, 255)"><polygon points="0,50 50,100 100,50 50,0"/></g></g><g transform="translate(245,665) scale(0.35,0.35)"><g transform="" style="fill:rgb(255, 255, 255)"><polygon points="0,50 50,100 100,50 50,0"/></g></g><g transform="translate(350,665) scale(0.35,0.35)"><g transform="" style="fill:rgb(255, 255, 255)"><polygon points="0,50 50,100 100,50 50,0"/></g></g><g transform="translate(385,665) scale(0.35,0.35)"><g transform="" style="fill:rgb(255, 255, 255)"><polygon points="0,50 50,100 100,50 50,0"/></g></g><g transform="translate(420,665) scale(0.35,0.35)"><g transform="" style="fill:rgb(255, 255, 255)"><polygon points="0,50 50,100 100,50 50,0"/></g></g><g transform="translate(490,665) scale(0.35,0.35)"><g transform="" style="fill:rgb(255, 255, 255)"><polygon points="0,50 50,100 100,50 50,0"/></g></g><g transform="translate(595,665) scale(0.35,0.35)"><g transform="" style="fill:rgb(255, 255, 255)"><polygon points="0,50 50,100 100,50 50,0"/></g></g><g transform="translate(630,665) scale(0.35,0.35)"><g transform="" style="fill:rgb(255, 255, 255)"><polygon points="0,50 50,100 100,50 50,0"/></g></g><g transform="translate(665,665) scale(0.35,0.35)"><g transform="" style="fill:rgb(255, 255, 255)"><polygon points="0,50 50,100 100,50 50,0"/></g></g><g transform="translate(700,665) scale(0.35,0.35)"><g transform="" style="fill:rgb(255, 255, 255)"><polygon points="0,50 50,100 100,50 50,0"/></g></g><g transform="translate(735,665) scale(0.35,0.35)"><g transform="" style="fill:rgb(255, 255, 255)"><polygon points="0,50 50,100 100,50 50,0"/></g></g><g transform="translate(770,665) scale(0.35,0.35)"><g transform="" style="fill:rgb(255, 255, 255)"><polygon points="0,50 50,100 100,50 50,0"/></g></g><g transform="translate(840,665) scale(0.35,0.35)"><g transform="" style="fill:rgb(255, 255, 255)"><polygon points="0,50 50,100 100,50 50,0"/></g></g><g transform="translate(945,665) scale(0.35,0.35)"><g transform="" style="fill:rgb(255, 255, 255)"><polygon points="0,50 50,100 100,50 50,0"/></g></g><g transform="translate(980,665) scale(0.35,0.35)"><g transform="" style="fill:rgb(255, 255, 255)"><polygon points="0,50 50,100 100,50 50,0"/></g></g><g transform="translate(0,700) scale(0.35,0.35)"><g transform="" style="fill:rgb(255, 255, 255)"><polygon points="0,50 50,100 100,50 50,0"/></g></g><g transform="translate(70,700) scale(0.35,0.35)"><g transform="" style="fill:rgb(255, 255, 255)"><polygon points="0,50 50,100 100,50 50,0"/></g></g><g transform="translate(105,700) scale(0.35,0.35)"><g transform="" style="fill:rgb(255, 255, 255)"><polygon points="0,50 50,100 100,50 50,0"/></g></g><g transform="translate(140,700) scale(0.35,0.35)"><g transform="" style="fill:rgb(255, 255, 255)"><polygon points="0,50 50,100 100,50 50,0"/></g></g><g transform="translate(210,700) scale(0.35,0.35)"><g transform="" style="fill:rgb(255, 255, 255)"><polygon points="0,50 50,100 100,50 50,0"/></g></g><g transform="translate(350,700) scale(0.35,0.35)"><g transform="" style="fill:rgb(255, 255, 255)"><polygon points="0,50 50,100 100,50 50,0"/></g></g><g transform="translate(420,700) scale(0.35,0.35)"><g transform="" style="fill:rgb(255, 255, 255)"><polygon points="0,50 50,100 100,50 50,0"/></g></g><g transform="translate(525,700) scale(0.35,0.35)"><g transform="" style="fill:rgb(255, 255, 255)"><polygon points="0,50 50,100 100,50 50,0"/></g></g><g transform="translate(700,700) scale(0.35,0.35)"><g transform="" style="fill:rgb(255, 255, 255)"><polygon points="0,50 50,100 100,50 50,0"/></g></g><g transform="translate(735,700) scale(0.35,0.35)"><g transform="" style="fill:rgb(255, 255, 255)"><polygon points="0,50 50,100 100,50 50,0"/></g></g><g transform="translate(770,700) scale(0.35,0.35)"><g transform="" style="fill:rgb(255, 255, 255)"><polygon points="0,50 50,100 100,50 50,0"/></g></g><g transform="translate(805,700) scale(0.35,0.35)"><g transform="" style="fill:rgb(255, 255, 255)"><polygon points="0,50 50,100 100,50 50,0"/></g></g><g transform="translate(840,700) scale(0.35,0.35)"><g transform="" style="fill:rgb(255, 255, 255)"><polygon points="0,50 50,100 100,50 50,0"/></g></g><g transform="translate(910,700) scale(0.35,0.35)"><g transform="" style="fill:rgb(255, 255, 255)"><polygon points="0,50 50,100 100,50 50,0"/></g></g><g transform="translate(280,735) scale(0.35,0.35)"><g transform="" style="fill:rgb(255, 255, 255)"><polygon points="0,50 50,100 100,50 50,0"/></g></g><g transform="translate(385,735) scale(0.35,0.35)"><g transform="" style="fill:rgb(255, 255, 255)"><polygon points="0,50 50,100 100,50 50,0"/></g></g><g transform="translate(490,735) scale(0.35,0.35)"><g transform="" style="fill:rgb(255, 255, 255)"><polygon points="0,50 50,100 100,50 50,0"/></g></g><g transform="translate(525,735) scale(0.35,0.35)"><g transform="" style="fill:rgb(255, 255, 255)"><polygon points="0,50 50,100 100,50 50,0"/></g></g><g transform="translate(595,735) scale(0.35,0.35)"><g transform="" style="fill:rgb(255, 255, 255)"><polygon points="0,50 50,100 100,50 50,0"/></g></g><g transform="translate(665,735) scale(0.35,0.35)"><g transform="" style="fill:rgb(255, 255, 255)"><polygon points="0,50 50,100 100,50 50,0"/></g></g><g transform="translate(700,735) scale(0.35,0.35)"><g transform="" style="fill:rgb(255, 255, 255)"><polygon points="0,50 50,100 100,50 50,0"/></g></g><g transform="translate(840,735) scale(0.35,0.35)"><g transform="" style="fill:rgb(255, 255, 255)"><polygon points="0,50 50,100 100,50 50,0"/></g></g><g transform="translate(910,735) scale(0.35,0.35)"><g transform="" style="fill:rgb(255, 255, 255)"><polygon points="0,50 50,100 100,50 50,0"/></g></g><g transform="translate(945,735) scale(0.35,0.35)"><g transform="" style="fill:rgb(255, 255, 255)"><polygon points="0,50 50,100 100,50 50,0"/></g></g><g transform="translate(980,735) scale(0.35,0.35)"><g transform="" style="fill:rgb(255, 255, 255)"><polygon points="0,50 50,100 100,50 50,0"/></g></g><g transform="translate(315,770) scale(0.35,0.35)"><g transform="" style="fill:rgb(255, 255, 255)"><polygon points="0,50 50,100 100,50 50,0"/></g></g><g transform="translate(385,770) scale(0.35,0.35)"><g transform="" style="fill:rgb(255, 255, 255)"><polygon points="0,50 50,100 100,50 50,0"/></g></g><g transform="translate(420,770) scale(0.35,0.35)"><g transform="" style="fill:rgb(255, 255, 255)"><polygon points="0,50 50,100 100,50 50,0"/></g></g><g transform="translate(560,770) scale(0.35,0.35)"><g transform="" style="fill:rgb(255, 255, 255)"><polygon points="0,50 50,100 100,50 50,0"/></g></g><g transform="translate(595,770) scale(0.35,0.35)"><g transform="" style="fill:rgb(255, 255, 255)"><polygon points="0,50 50,100 100,50 50,0"/></g></g><g transform="translate(630,770) scale(0.35,0.35)"><g transform="" style="fill:rgb(255, 255, 255)"><polygon points="0,50 50,100 100,50 50,0"/></g></g><g transform="translate(700,770) scale(0.35,0.35)"><g transform="" style="fill:rgb(255, 255, 255)"><polygon points="0,50 50,100 100,50 50,0"/></g></g><g transform="translate(770,770) scale(0.35,0.35)"><g transform="" style="fill:rgb(255, 255, 255)"><polygon points="0,50 50,100 100,50 50,0"/></g></g><g transform="translate(840,770) scale(0.35,0.35)"><g transform="" style="fill:rgb(255, 255, 255)"><polygon points="0,50 50,100 100,50 50,0"/></g></g><g transform="translate(945,770) scale(0.35,0.35)"><g transform="" style="fill:rgb(255, 255, 255)"><polygon points="0,50 50,100 100,50 50,0"/></g></g><g transform="translate(280,805) scale(0.35,0.35)"><g transform="" style="fill:rgb(255, 255, 255)"><polygon points="0,50 50,100 100,50 50,0"/></g></g><g transform="translate(315,805) scale(0.35,0.35)"><g transform="" style="fill:rgb(255, 255, 255)"><polygon points="0,50 50,100 100,50 50,0"/></g></g><g transform="translate(350,805) scale(0.35,0.35)"><g transform="" style="fill:rgb(255, 255, 255)"><polygon points="0,50 50,100 100,50 50,0"/></g></g><g transform="translate(420,805) scale(0.35,0.35)"><g transform="" style="fill:rgb(255, 255, 255)"><polygon points="0,50 50,100 100,50 50,0"/></g></g><g transform="translate(490,805) scale(0.35,0.35)"><g transform="" style="fill:rgb(255, 255, 255)"><polygon points="0,50 50,100 100,50 50,0"/></g></g><g transform="translate(525,805) scale(0.35,0.35)"><g transform="" style="fill:rgb(255, 255, 255)"><polygon points="0,50 50,100 100,50 50,0"/></g></g><g transform="translate(630,805) scale(0.35,0.35)"><g transform="" style="fill:rgb(255, 255, 255)"><polygon points="0,50 50,100 100,50 50,0"/></g></g><g transform="translate(700,805) scale(0.35,0.35)"><g transform="" style="fill:rgb(255, 255, 255)"><polygon points="0,50 50,100 100,50 50,0"/></g></g><g transform="translate(840,805) scale(0.35,0.35)"><g transform="" style="fill:rgb(255, 255, 255)"><polygon points="0,50 50,100 100,50 50,0"/></g></g><g transform="translate(875,805) scale(0.35,0.35)"><g transform="" style="fill:rgb(255, 255, 255)"><polygon points="0,50 50,100 100,50 50,0"/></g></g><g transform="translate(910,805) scale(0.35,0.35)"><g transform="" style="fill:rgb(255, 255, 255)"><polygon points="0,50 50,100 100,50 50,0"/></g></g><g transform="translate(315,840) scale(0.35,0.35)"><g transform="" style="fill:rgb(255, 255, 255)"><polygon points="0,50 50,100 100,50 50,0"/></g></g><g transform="translate(560,840) scale(0.35,0.35)"><g transform="" style="fill:rgb(255, 255, 255)"><polygon points="0,50 50,100 100,50 50,0"/></g></g><g transform="translate(595,840) scale(0.35,0.35)"><g transform="" style="fill:rgb(255, 255, 255)"><polygon points="0,50 50,100 100,50 50,0"/></g></g><g transform="translate(700,840) scale(0.35,0.35)"><g transform="" style="fill:rgb(255, 255, 255)"><polygon points="0,50 50,100 100,50 50,0"/></g></g><g transform="translate(735,840) scale(0.35,0.35)"><g transform="" style="fill:rgb(255, 255, 255)"><polygon points="0,50 50,100 100,50 50,0"/></g></g><g transform="translate(770,840) scale(0.35,0.35)"><g transform="" style="fill:rgb(255, 255, 255)"><polygon points="0,50 50,100 100,50 50,0"/></g></g><g transform="translate(805,840) scale(0.35,0.35)"><g transform="" style="fill:rgb(255, 255, 255)"><polygon points="0,50 50,100 100,50 50,0"/></g></g><g transform="translate(840,840) scale(0.35,0.35)"><g transform="" style="fill:rgb(255, 255, 255)"><polygon points="0,50 50,100 100,50 50,0"/></g></g><g transform="translate(945,840) scale(0.35,0.35)"><g transform="" style="fill:rgb(255, 255, 255)"><polygon points="0,50 50,100 100,50 50,0"/></g></g><g transform="translate(280,875) scale(0.35,0.35)"><g transform="" style="fill:rgb(255, 255, 255)"><polygon points="0,50 50,100 100,50 50,0"/></g></g><g transform="translate(350,875) scale(0.35,0.35)"><g transform="" style="fill:rgb(255, 255, 255)"><polygon points="0,50 50,100 100,50 50,0"/></g></g><g transform="translate(420,875) scale(0.35,0.35)"><g transform="" style="fill:rgb(255, 255, 255)"><polygon points="0,50 50,100 100,50 50,0"/></g></g><g transform="translate(525,875) scale(0.35,0.35)"><g transform="" style="fill:rgb(255, 255, 255)"><polygon points="0,50 50,100 100,50 50,0"/></g></g><g transform="translate(595,875) scale(0.35,0.35)"><g transform="" style="fill:rgb(255, 255, 255)"><polygon points="0,50 50,100 100,50 50,0"/></g></g><g transform="translate(770,875) scale(0.35,0.35)"><g transform="" style="fill:rgb(255, 255, 255)"><polygon points="0,50 50,100 100,50 50,0"/></g></g><g transform="translate(805,875) scale(0.35,0.35)"><g transform="" style="fill:rgb(255, 255, 255)"><polygon points="0,50 50,100 100,50 50,0"/></g></g><g transform="translate(840,875) scale(0.35,0.35)"><g transform="" style="fill:rgb(255, 255, 255)"><polygon points="0,50 50,100 100,50 50,0"/></g></g><g transform="translate(875,875) scale(0.35,0.35)"><g transform="" style="fill:rgb(255, 255, 255)"><polygon points="0,50 50,100 100,50 50,0"/></g></g><g transform="translate(910,875) scale(0.35,0.35)"><g transform="" style="fill:rgb(255, 255, 255)"><polygon points="0,50 50,100 100,50 50,0"/></g></g><g transform="translate(980,875) scale(0.35,0.35)"><g transform="" style="fill:rgb(255, 255, 255)"><polygon points="0,50 50,100 100,50 50,0"/></g></g><g transform="translate(315,910) scale(0.35,0.35)"><g transform="" style="fill:rgb(255, 255, 255)"><polygon points="0,50 50,100 100,50 50,0"/></g></g><g transform="translate(385,910) scale(0.35,0.35)"><g transform="" style="fill:rgb(255, 255, 255)"><polygon points="0,50 50,100 100,50 50,0"/></g></g><g transform="translate(420,910) scale(0.35,0.35)"><g transform="" style="fill:rgb(255, 255, 255)"><polygon points="0,50 50,100 100,50 50,0"/></g></g><g transform="translate(455,910) scale(0.35,0.35)"><g transform="" style="fill:rgb(255, 255, 255)"><polygon points="0,50 50,100 100,50 50,0"/></g></g><g transform="translate(490,910) scale(0.35,0.35)"><g transform="" style="fill:rgb(255, 255, 255)"><polygon points="0,50 50,100 100,50 50,0"/></g></g><g transform="translate(525,910) scale(0.35,0.35)"><g transform="" style="fill:rgb(255, 255, 255)"><polygon points="0,50 50,100 100,50 50,0"/></g></g><g transform="translate(560,910) scale(0.35,0.35)"><g transform="" style="fill:rgb(255, 255, 255)"><polygon points="0,50 50,100 100,50 50,0"/></g></g><g transform="translate(595,910) scale(0.35,0.35)"><g transform="" style="fill:rgb(255, 255, 255)"><polygon points="0,50 50,100 100,50 50,0"/></g></g><g transform="translate(665,910) scale(0.35,0.35)"><g transform="" style="fill:rgb(255, 255, 255)"><polygon points="0,50 50,100 100,50 50,0"/></g></g><g transform="translate(805,910) scale(0.35,0.35)"><g transform="" style="fill:rgb(255, 255, 255)"><polygon points="0,50 50,100 100,50 50,0"/></g></g><g transform="translate(840,910) scale(0.35,0.35)"><g transform="" style="fill:rgb(255, 255, 255)"><polygon points="0,50 50,100 100,50 50,0"/></g></g><g transform="translate(875,910) scale(0.35,0.35)"><g transform="" style="fill:rgb(255, 255, 255)"><polygon points="0,50 50,100 100,50 50,0"/></g></g><g transform="translate(910,910) scale(0.35,0.35)"><g transform="" style="fill:rgb(255, 255, 255)"><polygon points="0,50 50,100 100,50 50,0"/></g></g><g transform="translate(980,910) scale(0.35,0.35)"><g transform="" style="fill:rgb(255, 255, 255)"><polygon points="0,50 50,100 100,50 50,0"/></g></g><g transform="translate(315,945) scale(0.35,0.35)"><g transform="" style="fill:rgb(255, 255, 255)"><polygon points="0,50 50,100 100,50 50,0"/></g></g><g transform="translate(350,945) scale(0.35,0.35)"><g transform="" style="fill:rgb(255, 255, 255)"><polygon points="0,50 50,100 100,50 50,0"/></g></g><g transform="translate(385,945) scale(0.35,0.35)"><g transform="" style="fill:rgb(255, 255, 255)"><polygon points="0,50 50,100 100,50 50,0"/></g></g><g transform="translate(455,945) scale(0.35,0.35)"><g transform="" style="fill:rgb(255, 255, 255)"><polygon points="0,50 50,100 100,50 50,0"/></g></g><g transform="translate(490,945) scale(0.35,0.35)"><g transform="" style="fill:rgb(255, 255, 255)"><polygon points="0,50 50,100 100,50 50,0"/></g></g><g transform="translate(560,945) scale(0.35,0.35)"><g transform="" style="fill:rgb(255, 255, 255)"><polygon points="0,50 50,100 100,50 50,0"/></g></g><g transform="translate(595,945) scale(0.35,0.35)"><g transform="" style="fill:rgb(255, 255, 255)"><polygon points="0,50 50,100 100,50 50,0"/></g></g><g transform="translate(630,945) scale(0.35,0.35)"><g transform="" style="fill:rgb(255, 255, 255)"><polygon points="0,50 50,100 100,50 50,0"/></g></g><g transform="translate(665,945) scale(0.35,0.35)"><g transform="" style="fill:rgb(255, 255, 255)"><polygon points="0,50 50,100 100,50 50,0"/></g></g><g transform="translate(700,945) scale(0.35,0.35)"><g transform="" style="fill:rgb(255, 255, 255)"><polygon points="0,50 50,100 100,50 50,0"/></g></g><g transform="translate(805,945) scale(0.35,0.35)"><g transform="" style="fill:rgb(255, 255, 255)"><polygon points="0,50 50,100 100,50 50,0"/></g></g><g transform="translate(840,945) scale(0.35,0.35)"><g transform="" style="fill:rgb(255, 255, 255)"><polygon points="0,50 50,100 100,50 50,0"/></g></g><g transform="translate(945,945) scale(0.35,0.35)"><g transform="" style="fill:rgb(255, 255, 255)"><polygon points="0,50 50,100 100,50 50,0"/></g></g><g transform="translate(280,980) scale(0.35,0.35)"><g transform="" style="fill:rgb(255, 255, 255)"><polygon points="0,50 50,100 100,50 50,0"/></g></g><g transform="translate(350,980) scale(0.35,0.35)"><g transform="" style="fill:rgb(255, 255, 255)"><polygon points="0,50 50,100 100,50 50,0"/></g></g><g transform="translate(420,980) scale(0.35,0.35)"><g transform="" style="fill:rgb(255, 255, 255)"><polygon points="0,50 50,100 100,50 50,0"/></g></g><g transform="translate(490,980) scale(0.35,0.35)"><g transform="" style="fill:rgb(255, 255, 255)"><polygon points="0,50 50,100 100,50 50,0"/></g></g><g transform="translate(525,980) scale(0.35,0.35)"><g transform="" style="fill:rgb(255, 255, 255)"><polygon points="0,50 50,100 100,50 50,0"/></g></g><g transform="translate(630,980) scale(0.35,0.35)"><g transform="" style="fill:rgb(255, 255, 255)"><polygon points="0,50 50,100 100,50 50,0"/></g></g><g transform="translate(700,980) scale(0.35,0.35)"><g transform="" style="fill:rgb(255, 255, 255)"><polygon points="0,50 50,100 100,50 50,0"/></g></g><g transform="translate(735,980) scale(0.35,0.35)"><g transform="" style="fill:rgb(255, 255, 255)"><polygon points="0,50 50,100 100,50 50,0"/></g></g><g transform="translate(840,980) scale(0.35,0.35)"><g transform="" style="fill:rgb(255, 255, 255)"><polygon points="0,50 50,100 100,50 50,0"/></g></g><g transform="translate(945,980) scale(0.35,0.35)"><g transform="" style="fill:rgb(255, 255, 255)"><polygon points="0,50 50,100 100,50 50,0"/></g></g></g></mask></defs></g><rect x="0" y="0" width="1015" height="1015" fill="url(#grad)" mask="url(#gmask)"/><g transform="translate(0,0) scale(2.45, 2.45)"><g transform=" translate(100, 0) scale(-1,1) " style="fill:rgb(0, 0, 0)"><g><path style="fill:none" d="M85,66.221V33.75C85,23.411,76.414,15,65.859,15H34.14C23.586,15,15,23.411,15,33.75v51.246
		l50.855-0.016C76.414,84.98,85,76.564,85,66.221z"/><path d="M100,66.221V33.75C100,15.141,84.68,0,65.859,0H34.14C15.32,0,0,15.141,0,33.75V100l65.859-0.02
		C84.68,99.98,100,84.84,100,66.221z M85,66.221c0,10.344-8.586,18.76-19.145,18.76L15,84.996V33.75C15,23.411,23.586,15,34.14,15
		h31.719C76.414,15,85,23.411,85,33.75V66.221z"/></g></g></g><g transform="translate(770,0) scale(2.45, 2.45)"><g transform="" style="fill:rgb(0, 0, 0)"><g><path style="fill:none" d="M85,66.221V33.75C85,23.411,76.414,15,65.859,15H34.14C23.586,15,15,23.411,15,33.75v51.246
		l50.855-0.016C76.414,84.98,85,76.564,85,66.221z"/><path d="M100,66.221V33.75C100,15.141,84.68,0,65.859,0H34.14C15.32,0,0,15.141,0,33.75V100l65.859-0.02
		C84.68,99.98,100,84.84,100,66.221z M85,66.221c0,10.344-8.586,18.76-19.145,18.76L15,84.996V33.75C15,23.411,23.586,15,34.14,15
		h31.719C76.414,15,85,23.411,85,33.75V66.221z"/></g></g></g><g transform="translate(0,770) scale(2.45, 2.45)"><g transform=" translate(100, 0) scale(-1,1)  translate(0,100) scale(1,-1) " style="fill:rgb(0, 0, 0)"><g><path style="fill:none" d="M85,66.221V33.75C85,23.411,76.414,15,65.859,15H34.14C23.586,15,15,23.411,15,33.75v51.246
		l50.855-0.016C76.414,84.98,85,76.564,85,66.221z"/><path d="M100,66.221V33.75C100,15.141,84.68,0,65.859,0H34.14C15.32,0,0,15.141,0,33.75V100l65.859-0.02
		C84.68,99.98,100,84.84,100,66.221z M85,66.221c0,10.344-8.586,18.76-19.145,18.76L15,84.996V33.75C15,23.411,23.586,15,34.14,15
		h31.719C76.414,15,85,23.411,85,33.75V66.221z"/></g></g></g><g transform="translate(70,70) scale(1.05, 1.05)"><g transform=" translate(0,100) scale(1,-1) " style="fill:rgb(67, 109, 102)"><g/><path d="M72.744-0.021H27.23c-2.341,0-4.612,0.297-6.771,0.875C15.679,2.11,11.418,4.648,8.04,8.09
	c-0.617,0.621-1.206,1.284-1.752,1.96c-3.883,4.767-6.21,10.903-6.21,17.561L0.05,99.979h72.694
	c14.971,0,27.138-12.397,27.138-27.63V27.625v-0.014l0.168-27.617C100.05-0.006,82.107-0.021,72.744-0.021z"/></g></g><g transform="translate(840,70) scale(1.05, 1.05)"><g transform="" style="fill:rgb(67, 109, 102)"><g/><path d="M72.744-0.021H27.23c-2.341,0-4.612,0.297-6.771,0.875C15.679,2.11,11.418,4.648,8.04,8.09
	c-0.617,0.621-1.206,1.284-1.752,1.96c-3.883,4.767-6.21,10.903-6.21,17.561L0.05,99.979h72.694
	c14.971,0,27.138-12.397,27.138-27.63V27.625v-0.014l0.168-27.617C100.05-0.006,82.107-0.021,72.744-0.021z"/></g></g><g transform="translate(70,840) scale(1.05, 1.05)"><g transform="" style="fill:rgb(67, 109, 102)"><g/><path d="M72.744-0.021H27.23c-2.341,0-4.612,0.297-6.771,0.875C15.679,2.11,11.418,4.648,8.04,8.09
	c-0.617,0.621-1.206,1.284-1.752,1.96c-3.883,4.767-6.21,10.903-6.21,17.561L0.05,99.979h72.694
	c14.971,0,27.138-12.397,27.138-27.63V27.625v-0.014l0.168-27.617C100.05-0.006,82.107-0.021,72.744-0.021z"/></g></g></g></svg>